<svg xmlns="http://www.w3.org/2000/svg" xmlns:xlink="http://www.w3.org/1999/xlink" width="48" height="48" version="1.1">
 <defs>
  <linearGradient id="linearGradient4236">
   <stop offset="0" style="stop-color:#575d5e;stop-opacity:1"/>
   <stop offset="1" style="stop-color:#292d2e;stop-opacity:1"/>
  </linearGradient>
  <linearGradient id="linearGradient3895">
   <stop style="stop-color:#ffffff;stop-opacity:1" offset="0"/>
   <stop style="stop-color:#ffffff;stop-opacity:0.23529412" offset=".03"/>
   <stop style="stop-color:#ffffff;stop-opacity:0.15686275" offset=".978"/>
   <stop style="stop-color:#ffffff;stop-opacity:0.39215687" offset="1"/>
  </linearGradient>
  <linearGradient id="linearGradient3688-166-749">
   <stop style="stop-color:#181818;stop-opacity:1" offset="0"/>
   <stop style="stop-color:#181818;stop-opacity:0" offset="1"/>
  </linearGradient>
  <linearGradient id="linearGradient3688-464-309">
   <stop style="stop-color:#181818;stop-opacity:1" offset="0"/>
   <stop style="stop-color:#181818;stop-opacity:0" offset="1"/>
  </linearGradient>
  <linearGradient id="linearGradient3702-501-757">
   <stop style="stop-color:#181818;stop-opacity:0" offset="0"/>
   <stop style="stop-color:#181818;stop-opacity:1" offset=".5"/>
   <stop style="stop-color:#181818;stop-opacity:0" offset="1"/>
  </linearGradient>
  <linearGradient id="linearGradient3024" x1="24" x2="24" y1="6.032" y2="41.934" gradientTransform="translate(4e-6,1.0000062)" gradientUnits="userSpaceOnUse" xlink:href="#linearGradient3895"/>
  <radialGradient id="radialGradient3038" cx="4.993" cy="43.5" r="2.5" fx="4.993" fy="43.5" gradientTransform="matrix(2.003784,0,0,1.4,27.98813,-17.4)" gradientUnits="userSpaceOnUse" xlink:href="#linearGradient3688-166-749"/>
  <radialGradient id="radialGradient3040" cx="4.993" cy="43.5" r="2.5" fx="4.993" fy="43.5" gradientTransform="matrix(2.003784,0,0,1.4,-20.01187,-104.4)" gradientUnits="userSpaceOnUse" xlink:href="#linearGradient3688-464-309"/>
  <linearGradient id="linearGradient3042" x1="25.058" x2="25.058" y1="47.028" y2="39.999" gradientUnits="userSpaceOnUse" xlink:href="#linearGradient3702-501-757"/>
  <linearGradient id="linearGradient4232" x1="25" x2="25" y1="6" y2="44" gradientUnits="userSpaceOnUse" xlink:href="#linearGradient4236"/>
 </defs>
 <g transform="matrix(1.1578952,0,0,0.6428571,-3.789476,16.035716)" style="opacity:0.6">
  <rect width="5" height="7" x="38" y="40" style="fill:url(#radialGradient3038);fill-opacity:1;stroke:none"/>
  <rect width="5" height="7" x="-10" y="-47" transform="scale(-1,-1)" style="fill:url(#radialGradient3040);fill-opacity:1;stroke:none"/>
  <rect width="28" height="7" x="10" y="40" style="fill:url(#linearGradient3042);fill-opacity:1;stroke:none"/>
 </g>
 <rect width="39" height="39" x="4.5" y="5.5" rx="2" ry="2" style="opacity:1;color:#000000;fill:url(#linearGradient4232);fill-opacity:1;fill-rule:nonzero;stroke:none;stroke-width:0.99999994;marker:none;visibility:visible;display:inline;overflow:visible;enable-background:accumulate;clip-rule:nonzero;isolation:auto;mix-blend-mode:normal;color-interpolation:sRGB;color-interpolation-filters:linearRGB;solid-color:#000000;solid-opacity:1;stroke-linecap:butt;stroke-linejoin:miter;stroke-miterlimit:4;stroke-dasharray:none;stroke-dashoffset:0;stroke-opacity:1;filter-blend-mode:normal;filter-gaussianBlur-deviation:0;color-rendering:auto;image-rendering:auto;shape-rendering:auto;text-rendering:auto"/>
 <path style="opacity:0.5;fill:#ffffff;fill-opacity:1;stroke:none;stroke-width:2;stroke-linecap:round;stroke-linejoin:round;stroke-miterlimit:4;stroke-dasharray:none;stroke-opacity:1" d="M 7 8 L 7 11 L 13 11 L 13 8 L 7 8 z M 35 8 L 35 11 L 41 11 L 41 8 L 35 8 z M 7 14 L 7 17 L 13 17 L 13 14 L 7 14 z M 35 14 L 35 17 L 41 17 L 41 14 L 35 14 z M 7 20 L 7 23 L 13 23 L 13 20 L 7 20 z M 35 20 L 35 23 L 41 23 L 41 20 L 35 20 z M 7 26 L 7 29 L 13 29 L 13 26 L 7 26 z M 35 26 L 35 29 L 41 29 L 41 26 L 35 26 z M 7 32 L 7 35 L 13 35 L 13 32 L 7 32 z M 35 32 L 35 35 L 41 35 L 41 32 L 35 32 z M 7 38 L 7 41 L 13 41 L 13 38 L 7 38 z M 35 38 L 35 41 L 41 41 L 41 38 L 35 38 z"/>
 <path style="opacity:0.3;fill:#000000;fill-opacity:1;stroke:none;stroke-width:2;stroke-linecap:round;stroke-linejoin:round;stroke-miterlimit:4;stroke-dasharray:none;stroke-opacity:1" d="m 7,11 0,1 6,0 0,-1 -6,0 z m 28,0 0,1 6,0 0,-1 -6,0 z m -28,6 0,1 6,0 0,-1 -6,0 z m 28,0 0,1 6,0 0,-1 -6,0 z m -28,6 0,1 6,0 0,-1 -6,0 z m 28,0 0,1 6,0 0,-1 -6,0 z m -28,6 0,1 6,0 0,-1 -6,0 z m 28,0 0,1 6,0 0,-1 -6,0 z m -28,6 0,1 6,0 0,-1 -6,0 z m 28,0 0,1 6,0 0,-1 -6,0 z m -28,6 0,1 6,0 0,-1 -6,0 z m 28,0 0,1 6,0 0,-1 -6,0 z"/>
 <rect width="39" height="39" x="4.5" y="5.5" rx="2" ry="2" style="opacity:0.7;color:#000000;fill:none;stroke:#000000;stroke-width:1;stroke-linecap:round;stroke-linejoin:round;stroke-miterlimit:4;stroke-opacity:1;stroke-dasharray:none;stroke-dashoffset:0;marker:none;visibility:visible;display:inline;overflow:visible;enable-background:accumulate"/>
 <rect width="37" height="37" x="5.5" y="6.5" rx="1" ry="1" style="opacity:0.3;fill:none;stroke:url(#linearGradient3024);stroke-width:0.99999994;stroke-linecap:round;stroke-linejoin:round;stroke-miterlimit:4;stroke-opacity:1;stroke-dasharray:none;stroke-dashoffset:0"/>
 <path style="color:#000000;font-style:normal;font-variant:normal;font-weight:normal;font-stretch:normal;font-size:medium;line-height:normal;font-family:sans-serif;text-indent:0;text-align:start;text-decoration:none;text-decoration-line:none;text-decoration-style:solid;text-decoration-color:#000000;letter-spacing:normal;word-spacing:normal;text-transform:none;direction:ltr;block-progression:tb;writing-mode:lr-tb;baseline-shift:baseline;text-anchor:start;white-space:normal;clip-rule:nonzero;display:inline;overflow:visible;visibility:visible;opacity:0.15;isolation:auto;mix-blend-mode:normal;color-interpolation:sRGB;color-interpolation-filters:linearRGB;solid-color:#000000;solid-opacity:1;fill:#000000;fill-opacity:1;fill-rule:evenodd;stroke:none;stroke-width:2;stroke-linecap:butt;stroke-linejoin:round;stroke-miterlimit:4;stroke-dasharray:none;stroke-dashoffset:0;stroke-opacity:1;color-rendering:auto;image-rendering:auto;shape-rendering:auto;text-rendering:auto;enable-background:accumulate" d="M 17.447266 17.001953 C 16.650215 17.030067 15.999584 17.702403 16 18.5 L 16 31.5 A 1.0001 1.0001 0 0 0 16 31.501953 C 16.0011 32.573477 17.208511 33.32071 18.167969 32.84375 A 1.0001 1.0001 0 0 0 18.169922 32.841797 L 31.169922 26.341797 C 32.219284 25.817195 32.219284 24.182805 31.169922 23.658203 L 18.169922 17.158203 C 17.946653 17.046325 17.698815 16.993861 17.449219 17.001953 A 1.0001 1.0001 0 0 0 17.447266 17.001953 z"/>
 <path d="M 17.482453,18.000452 A 0.50008242,0.50005 0 0 0 17,18.500452 l 0,13 a 0.50008242,0.50005 0 0 0 0.722703,0.447266 l 13.000843,-6.5 a 0.50008242,0.50005 0 0 0 0,-0.894532 l -13.000843,-6.5 a 0.50008242,0.50005 0 0 0 -0.24025,-0.05273 z" style="color:#000000;font-style:normal;font-variant:normal;font-weight:normal;font-stretch:normal;font-size:medium;line-height:normal;font-family:sans-serif;text-indent:0;text-align:start;text-decoration:none;text-decoration-line:none;text-decoration-style:solid;text-decoration-color:#000000;letter-spacing:normal;word-spacing:normal;text-transform:none;direction:ltr;block-progression:tb;writing-mode:lr-tb;baseline-shift:baseline;text-anchor:start;white-space:normal;clip-rule:nonzero;display:inline;overflow:visible;visibility:visible;opacity:0.3;isolation:auto;mix-blend-mode:normal;color-interpolation:sRGB;color-interpolation-filters:linearRGB;solid-color:#000000;solid-opacity:1;fill:#000000;fill-opacity:1;fill-rule:evenodd;stroke:none;stroke-width:1px;stroke-linecap:butt;stroke-linejoin:round;stroke-miterlimit:4;stroke-dasharray:none;stroke-dashoffset:0;stroke-opacity:1;color-rendering:auto;image-rendering:auto;shape-rendering:auto;text-rendering:auto;enable-background:accumulate"/>
 <path style="color:#000000;font-style:normal;font-variant:normal;font-weight:normal;font-stretch:normal;font-size:medium;line-height:normal;font-family:sans-serif;text-indent:0;text-align:start;text-decoration:none;text-decoration-line:none;text-decoration-style:solid;text-decoration-color:#000000;letter-spacing:normal;word-spacing:normal;text-transform:none;direction:ltr;block-progression:tb;writing-mode:lr-tb;baseline-shift:baseline;text-anchor:start;white-space:normal;clip-rule:nonzero;display:inline;overflow:visible;visibility:visible;opacity:1;isolation:auto;mix-blend-mode:normal;color-interpolation:sRGB;color-interpolation-filters:linearRGB;solid-color:#000000;solid-opacity:1;fill:#ffffff;fill-opacity:1;fill-rule:evenodd;stroke:none;stroke-width:1px;stroke-linecap:butt;stroke-linejoin:round;stroke-miterlimit:4;stroke-dasharray:none;stroke-dashoffset:0;stroke-opacity:1;color-rendering:auto;image-rendering:auto;shape-rendering:auto;text-rendering:auto;enable-background:accumulate" d="M 17.482453,17 A 0.50008242,0.50005 0 0 0 17,17.5 l 0,13 a 0.50008242,0.50005 0 0 0 0.722703,0.447266 l 13.000843,-6.5 a 0.50008242,0.50005 0 0 0 0,-0.894532 l -13.000843,-6.5 A 0.50008242,0.50005 0 0 0 17.482453,17 Z"/>
</svg>
