<svg xmlns="http://www.w3.org/2000/svg" xmlns:xlink="http://www.w3.org/1999/xlink" width="32" height="32" version="1.1">
 <defs>
  <linearGradient id="linearGradient4203">
   <stop offset="0" style="stop-color:#292d2e;stop-opacity:1"/>
   <stop offset="1" style="stop-color:#575d5e;stop-opacity:1"/>
  </linearGradient>
  <linearGradient id="linearGradient4281">
   <stop style="stop-color:#ffffff;stop-opacity:1" offset="0"/>
   <stop style="stop-color:#ffffff;stop-opacity:0.23529412" offset=".026"/>
   <stop style="stop-color:#ffffff;stop-opacity:0.15686275" offset=".958"/>
   <stop style="stop-color:#ffffff;stop-opacity:0.39215687" offset="1"/>
  </linearGradient>
  <linearGradient id="linearGradient3174" x1="24" x2="24" y1="6.24" y2="41.76" gradientTransform="matrix(0.67567568,0,0,0.67567568,-0.21621703,-0.21620627)" gradientUnits="userSpaceOnUse" xlink:href="#linearGradient4281"/>
  <radialGradient id="radialGradient2976" cx="4.993" cy="43.5" r="2.5" fx="4.993" fy="43.5" gradientTransform="matrix(2.003784,0,0,1.4,27.98813,-17.4)" gradientUnits="userSpaceOnUse" xlink:href="#linearGradient3688-166-749-6"/>
  <linearGradient id="linearGradient3688-166-749-6">
   <stop offset="0" style="stop-color:#181818;stop-opacity:1"/>
   <stop offset="1" style="stop-color:#181818;stop-opacity:0"/>
  </linearGradient>
  <radialGradient id="radialGradient2978" cx="4.993" cy="43.5" r="2.5" fx="4.993" fy="43.5" gradientTransform="matrix(2.003784,0,0,1.4,-20.01187,-104.4)" gradientUnits="userSpaceOnUse" xlink:href="#linearGradient3688-464-309-7"/>
  <linearGradient id="linearGradient3688-464-309-7">
   <stop offset="0" style="stop-color:#181818;stop-opacity:1"/>
   <stop offset="1" style="stop-color:#181818;stop-opacity:0"/>
  </linearGradient>
  <linearGradient id="linearGradient2980" x1="25.058" x2="25.058" y1="47.028" y2="39.999" gradientUnits="userSpaceOnUse" xlink:href="#linearGradient3702-501-757-3"/>
  <linearGradient id="linearGradient3702-501-757-3">
   <stop offset="0" style="stop-color:#181818;stop-opacity:0"/>
   <stop offset=".5" style="stop-color:#181818;stop-opacity:1"/>
   <stop offset="1" style="stop-color:#181818;stop-opacity:0"/>
  </linearGradient>
  <linearGradient id="linearGradient4199" x1="17" x2="17" y1="29" y2="3" gradientUnits="userSpaceOnUse" xlink:href="#linearGradient4203"/>
 </defs>
 <g transform="matrix(0.6999997,0,0,0.3333336,-0.8000002,15.33333)" style="display:inline">
  <g transform="matrix(1.052632,0,0,1.285713,-1.263158,-13.42854)" style="opacity:0.4">
   <rect width="5" height="7" x="38" y="40" style="fill:url(#radialGradient2976);fill-opacity:1;stroke:none"/>
   <rect width="5" height="7" x="-10" y="-47" transform="scale(-1,-1)" style="fill:url(#radialGradient2978);fill-opacity:1;stroke:none"/>
   <rect width="28" height="7" x="10" y="40" style="fill:url(#linearGradient2980);fill-opacity:1;stroke:none"/>
  </g>
 </g>
 <rect width="27" height="27" x="2.5" y="2.5" rx="2.16" ry="2.16" style="color:#000000;display:inline;overflow:visible;visibility:visible;opacity:1;fill:url(#linearGradient4199);fill-opacity:1;fill-rule:nonzero;stroke:none;stroke-width:0.99999994;marker:none;enable-background:accumulate;clip-rule:nonzero;isolation:auto;mix-blend-mode:normal;color-interpolation:sRGB;color-interpolation-filters:linearRGB;solid-color:#000000;solid-opacity:1;stroke-linecap:butt;stroke-linejoin:miter;stroke-miterlimit:4;stroke-dasharray:none;stroke-dashoffset:0;stroke-opacity:1;filter-blend-mode:normal;filter-gaussianBlur-deviation:0;color-rendering:auto;image-rendering:auto;shape-rendering:auto;text-rendering:auto"/>
 <path d="M 12.419922 12 C 11.638975 12.027318 11.000947 12.689304 11 13.470703 L 11 20.529297 C 11.000687 21.579969 12.186285 22.313793 13.126953 21.845703 A 1.0001 1.0001 0 0 0 13.128906 21.845703 L 20.185547 18.316406 C 21.21449 17.802505 21.21449 16.197495 20.185547 15.683594 L 13.128906 12.154297 A 1.0001 1.0001 0 0 0 13.126953 12.154297 C 12.907669 12.045502 12.664554 11.991183 12.419922 12 z" style="color:#000000;font-style:normal;font-variant:normal;font-weight:normal;font-stretch:normal;font-size:medium;line-height:normal;font-family:sans-serif;text-indent:0;text-align:start;text-decoration:none;text-decoration-line:none;text-decoration-style:solid;text-decoration-color:#000000;letter-spacing:normal;word-spacing:normal;text-transform:none;direction:ltr;block-progression:tb;writing-mode:lr-tb;baseline-shift:baseline;text-anchor:start;white-space:normal;clip-rule:nonzero;display:inline;overflow:visible;visibility:visible;opacity:0.15;isolation:auto;mix-blend-mode:normal;color-interpolation:sRGB;color-interpolation-filters:linearRGB;solid-color:#000000;solid-opacity:1;fill:#000000;fill-opacity:1;fill-rule:evenodd;stroke:none;stroke-width:2;stroke-linecap:butt;stroke-linejoin:round;stroke-miterlimit:4;stroke-dasharray:none;stroke-dashoffset:0;stroke-opacity:1;color-rendering:auto;image-rendering:auto;shape-rendering:auto;text-rendering:auto;enable-background:accumulate"/>
 <rect width="25" height="25" x="3.5" y="3.5" rx="1.087" ry="1.087" style="opacity:0.3;fill:none;stroke:url(#linearGradient3174);stroke-width:1;stroke-linecap:round;stroke-linejoin:round;stroke-miterlimit:4;stroke-dasharray:none;stroke-dashoffset:0;stroke-opacity:1"/>
 <rect width="27" height="27" x="2.5" y="2.5" rx="2.16" ry="2.16" style="color:#000000;display:inline;overflow:visible;visibility:visible;opacity:0.7;fill:none;stroke:#000000;stroke-width:1;stroke-linecap:round;stroke-linejoin:round;stroke-miterlimit:4;stroke-dasharray:none;stroke-dashoffset:0;stroke-opacity:1;marker:none;enable-background:accumulate"/>
 <path d="M 5 5 L 5 7 L 9 7 L 9 5 L 5 5 z M 23 5 L 23 7 L 27 7 L 27 5 L 23 5 z M 5 9 L 5 11 L 9 11 L 9 9 L 5 9 z M 23 9 L 23 11 L 27 11 L 27 9 L 23 9 z M 5 13 L 5 15 L 9 15 L 9 13 L 5 13 z M 23 13 L 23 15 L 27 15 L 27 13 L 23 13 z M 5 17 L 5 19 L 9 19 L 9 17 L 5 17 z M 23 17 L 23 19 L 27 19 L 27 17 L 23 17 z M 5 21 L 5 23 L 9 23 L 9 21 L 5 21 z M 23 21 L 23 23 L 27 23 L 27 21 L 23 21 z M 5 25 L 5 27 L 9 27 L 9 25 L 5 25 z M 23 25 L 23 27 L 27 27 L 27 25 L 23 25 z" style="opacity:0.5;fill:#ffffff;fill-opacity:1;stroke:none;stroke-width:2;stroke-linecap:round;stroke-linejoin:round;stroke-miterlimit:4;stroke-dasharray:none;stroke-opacity:1"/>
 <path style="color:#000000;font-style:normal;font-variant:normal;font-weight:normal;font-stretch:normal;font-size:medium;line-height:normal;font-family:sans-serif;text-indent:0;text-align:start;text-decoration:none;text-decoration-line:none;text-decoration-style:solid;text-decoration-color:#000000;letter-spacing:normal;word-spacing:normal;text-transform:none;direction:ltr;block-progression:tb;writing-mode:lr-tb;baseline-shift:baseline;text-anchor:start;white-space:normal;clip-rule:nonzero;display:inline;overflow:visible;visibility:visible;opacity:0.3;isolation:auto;mix-blend-mode:normal;color-interpolation:sRGB;color-interpolation-filters:linearRGB;solid-color:#000000;solid-opacity:1;fill:#000000;fill-opacity:1;fill-rule:evenodd;stroke:none;stroke-width:0.94303155px;stroke-linecap:butt;stroke-linejoin:round;stroke-miterlimit:4;stroke-dasharray:none;stroke-dashoffset:0;stroke-opacity:1;color-rendering:auto;image-rendering:auto;shape-rendering:auto;text-rendering:auto;enable-background:accumulate" d="M 12.455015,13.000306 A 0.47149808,0.4715124 0 0 0 12,13.470959 l 0,7.057837 a 0.47149808,0.4715124 0 0 0 0.681547,0.42183 l 7.057623,-3.528919 a 0.47149808,0.4715124 0 0 0 0,-0.843659 l -7.057623,-3.528919 a 0.47149808,0.4715124 0 0 0 -0.226532,-0.04882 z"/>
 <path d="M 12.455015,12.000306 A 0.47149808,0.4715124 0 0 0 12,12.470959 l 0,7.057837 a 0.47149808,0.4715124 0 0 0 0.681547,0.42183 l 7.057623,-3.528919 a 0.47149808,0.4715124 0 0 0 0,-0.843659 l -7.057623,-3.528919 a 0.47149808,0.4715124 0 0 0 -0.226532,-0.04882 z" style="color:#000000;font-style:normal;font-variant:normal;font-weight:normal;font-stretch:normal;font-size:medium;line-height:normal;font-family:sans-serif;text-indent:0;text-align:start;text-decoration:none;text-decoration-line:none;text-decoration-style:solid;text-decoration-color:#000000;letter-spacing:normal;word-spacing:normal;text-transform:none;direction:ltr;block-progression:tb;writing-mode:lr-tb;baseline-shift:baseline;text-anchor:start;white-space:normal;clip-rule:nonzero;display:inline;overflow:visible;visibility:visible;opacity:1;isolation:auto;mix-blend-mode:normal;color-interpolation:sRGB;color-interpolation-filters:linearRGB;solid-color:#000000;solid-opacity:1;fill:#ffffff;fill-opacity:1;fill-rule:evenodd;stroke:none;stroke-width:0.94303155px;stroke-linecap:butt;stroke-linejoin:round;stroke-miterlimit:4;stroke-dasharray:none;stroke-dashoffset:0;stroke-opacity:1;color-rendering:auto;image-rendering:auto;shape-rendering:auto;text-rendering:auto;enable-background:accumulate"/>
 <path d="M 5 7 L 5 8 L 9 8 L 9 7 L 5 7 z M 23 7 L 23 8 L 27 8 L 27 7 L 23 7 z M 5 11 L 5 12 L 9 12 L 9 11 L 5 11 z M 23 11 L 23 12 L 27 12 L 27 11 L 23 11 z M 5 15 L 5 16 L 9 16 L 9 15 L 5 15 z M 23 15 L 23 16 L 27 16 L 27 15 L 23 15 z M 5 19 L 5 20 L 9 20 L 9 19 L 5 19 z M 23 19 L 23 20 L 27 20 L 27 19 L 23 19 z M 5 23 L 5 24 L 9 24 L 9 23 L 5 23 z M 23 23 L 23 24 L 27 24 L 27 23 L 23 23 z M 5 27 L 5 28 L 9 28 L 9 27 L 5 27 z M 23 27 L 23 28 L 27 28 L 27 27 L 23 27 z" style="opacity:0.3;fill:#000000;fill-opacity:1;stroke:none;stroke-width:2;stroke-linecap:round;stroke-linejoin:round;stroke-miterlimit:4;stroke-dasharray:none;stroke-opacity:1"/>
</svg>
