<svg xmlns="http://www.w3.org/2000/svg" xmlns:xlink="http://www.w3.org/1999/xlink" width="64" height="64" version="1.1">
 <defs>
  <linearGradient id="linearGradient4170">
   <stop style="stop-color:#575d5e;stop-opacity:1" offset="0"/>
   <stop style="stop-color:#292d2e;stop-opacity:1" offset="1"/>
  </linearGradient>
  <linearGradient id="linearGradient3180" x1="24" x2="24" y1="5" y2="43" gradientTransform="matrix(1.4324324,0,0,1.4362832,-2.378381,-2.4707781)" gradientUnits="userSpaceOnUse" xlink:href="#linearGradient3924-2-2-5-8"/>
  <linearGradient id="linearGradient3924-2-2-5-8">
   <stop offset="0" style="stop-color:#ffffff;stop-opacity:1"/>
   <stop offset=".063" style="stop-color:#ffffff;stop-opacity:0.23529412"/>
   <stop offset=".951" style="stop-color:#ffffff;stop-opacity:0.15686275"/>
   <stop offset="1" style="stop-color:#ffffff;stop-opacity:0.39215687"/>
  </linearGradient>
  <radialGradient id="radialGradient3337-2-2" cx="4.993" cy="43.5" r="2.5" fx="4.993" fy="43.5" gradientTransform="matrix(2.003784,0,0,1.4,27.98813,-17.4)" gradientUnits="userSpaceOnUse" xlink:href="#linearGradient3688-166-749-4-0-3-8"/>
  <linearGradient id="linearGradient3688-166-749-4-0-3-8">
   <stop offset="0" style="stop-color:#181818;stop-opacity:1"/>
   <stop offset="1" style="stop-color:#181818;stop-opacity:0"/>
  </linearGradient>
  <radialGradient id="radialGradient3339-1-4" cx="4.993" cy="43.5" r="2.5" fx="4.993" fy="43.5" gradientTransform="matrix(2.003784,0,0,1.4,-20.01187,-104.4)" gradientUnits="userSpaceOnUse" xlink:href="#linearGradient3688-464-309-9-2-4-2"/>
  <linearGradient id="linearGradient3688-464-309-9-2-4-2">
   <stop offset="0" style="stop-color:#181818;stop-opacity:1"/>
   <stop offset="1" style="stop-color:#181818;stop-opacity:0"/>
  </linearGradient>
  <linearGradient id="linearGradient3702-501-757-8-4-1-1">
   <stop offset="0" style="stop-color:#181818;stop-opacity:0"/>
   <stop offset=".5" style="stop-color:#181818;stop-opacity:1"/>
   <stop offset="1" style="stop-color:#181818;stop-opacity:0"/>
  </linearGradient>
  <linearGradient id="linearGradient4159" x1="25.058" x2="25.058" y1="47.028" y2="39.999" gradientUnits="userSpaceOnUse" xlink:href="#linearGradient3702-501-757-8-4-1-1"/>
  <linearGradient id="linearGradient4166" x1="32" x2="32" y1="5" y2="59" gradientUnits="userSpaceOnUse" xlink:href="#linearGradient4170"/>
 </defs>
 <g transform="matrix(1.5789502,0,0,0.7142857,-5.894751,27.928572)" style="opacity:0.6">
  <rect width="5" height="7" x="38" y="40" style="fill:url(#radialGradient3337-2-2);fill-opacity:1;stroke:none"/>
  <rect width="5" height="7" x="-10" y="-47" transform="scale(-1,-1)" style="fill:url(#radialGradient3339-1-4);fill-opacity:1;stroke:none"/>
  <rect width="28" height="7" x="10" y="40" style="fill:url(#linearGradient4159);fill-opacity:1;stroke:none"/>
 </g>
 <rect width="55" height="55" x="4.5" y="4.5" rx="3" ry="3" style="color:#000000;display:inline;overflow:visible;visibility:visible;opacity:1;fill:url(#linearGradient4166);fill-opacity:1;fill-rule:nonzero;stroke:none;stroke-width:0.99999994;marker:none;enable-background:accumulate"/>
 <path d="M 22.457031 22.001953 C 21.65314 22.031601 20.998479 22.711188 21 23.515625 L 21 42.486328 C 21.000116 43.568866 22.220879 44.323325 23.189453 43.839844 L 42.164062 34.353516 C 43.223602 33.824311 43.223602 32.175689 42.164062 31.646484 L 23.193359 22.162109 L 23.189453 22.160156 C 22.964019 22.047251 22.712971 21.993599 22.460938 22.001953 A 1.0001 1.0001 0 0 0 22.457031 22.001953 z" style="color:#000000;font-style:normal;font-variant:normal;font-weight:normal;font-stretch:normal;font-size:medium;line-height:normal;font-family:sans-serif;text-indent:0;text-align:start;text-decoration:none;text-decoration-line:none;text-decoration-style:solid;text-decoration-color:#000000;letter-spacing:normal;word-spacing:normal;text-transform:none;direction:ltr;block-progression:tb;writing-mode:lr-tb;baseline-shift:baseline;text-anchor:start;white-space:normal;clip-rule:nonzero;display:inline;overflow:visible;visibility:visible;opacity:0.15;isolation:auto;mix-blend-mode:normal;color-interpolation:sRGB;color-interpolation-filters:linearRGB;solid-color:#000000;solid-opacity:1;fill:#000000;fill-opacity:1;fill-rule:evenodd;stroke:none;stroke-width:2;stroke-linecap:butt;stroke-linejoin:round;stroke-miterlimit:4;stroke-dasharray:none;stroke-dashoffset:0;stroke-opacity:1;color-rendering:auto;image-rendering:auto;shape-rendering:auto;text-rendering:auto;enable-background:accumulate"/>
 <rect width="53" height="53.142" x="5.5" y="5.43" rx="2" ry="2" style="opacity:0.3;fill:none;stroke:url(#linearGradient3180);stroke-width:1;stroke-linecap:round;stroke-linejoin:round;stroke-miterlimit:4;stroke-dasharray:none;stroke-dashoffset:0;stroke-opacity:1"/>
 <rect width="55" height="55" x="4.5" y="4.5" rx="3" ry="3" style="color:#000000;display:inline;overflow:visible;visibility:visible;opacity:0.7;fill:none;stroke:#000000;stroke-width:1;stroke-linecap:round;stroke-linejoin:round;stroke-miterlimit:4;stroke-dasharray:none;stroke-dashoffset:0;stroke-opacity:1;marker:none;enable-background:accumulate"/>
 <path d="M 7 10 L 7 14 L 15 14 L 15 10 L 7 10 z M 49 10 L 49 14 L 57 14 L 57 10 L 49 10 z M 7 18 L 7 22 L 15 22 L 15 18 L 7 18 z M 49 18 L 49 22 L 57 22 L 57 18 L 49 18 z M 7 26 L 7 30 L 15 30 L 15 26 L 7 26 z M 49 26 L 49 30 L 57 30 L 57 26 L 49 26 z M 7 34 L 7 38 L 15 38 L 15 34 L 7 34 z M 49 34 L 49 38 L 57 38 L 57 34 L 49 34 z M 7 42 L 7 46 L 15 46 L 15 42 L 7 42 z M 49 42 L 49 46 L 57 46 L 57 42 L 49 42 z M 7 50 L 7 54 L 15 54 L 15 50 L 7 50 z M 49 50 L 49 54 L 57 54 L 57 50 L 49 50 z" style="opacity:0.5;fill:#ffffff;fill-opacity:1;stroke:none;stroke-width:2;stroke-linecap:round;stroke-linejoin:round;stroke-miterlimit:4;stroke-dasharray:none;stroke-opacity:1"/>
 <path style="color:#000000;font-style:normal;font-variant:normal;font-weight:normal;font-stretch:normal;font-size:medium;line-height:normal;font-family:sans-serif;text-indent:0;text-align:start;text-decoration:none;text-decoration-line:none;text-decoration-style:solid;text-decoration-color:#000000;letter-spacing:normal;word-spacing:normal;text-transform:none;direction:ltr;block-progression:tb;writing-mode:lr-tb;baseline-shift:baseline;text-anchor:start;white-space:normal;clip-rule:nonzero;display:inline;overflow:visible;visibility:visible;opacity:0.3;isolation:auto;mix-blend-mode:normal;color-interpolation:sRGB;color-interpolation-filters:linearRGB;solid-color:#000000;solid-opacity:1;fill:#000000;fill-opacity:1;fill-rule:evenodd;stroke:none;stroke-width:1.02599812px;stroke-linecap:butt;stroke-linejoin:round;stroke-miterlimit:4;stroke-dasharray:none;stroke-dashoffset:0;stroke-opacity:1;color-rendering:auto;image-rendering:auto;shape-rendering:auto;text-rendering:auto;enable-background:accumulate" d="M 22.494141,23.000676 A 0.51305036,0.51305036 0 0 0 22,23.514348 l 0,18.972656 a 0.51305036,0.51305036 0 0 0 0.742188,0.458984 L 41.716797,33.45966 a 0.51305036,0.51305036 0 0 0 0,-0.917968 L 22.742188,23.055364 a 0.51305036,0.51305036 0 0 0 -0.248047,-0.05469 z"/>
 <path d="M 22.494141 22 A 0.51305036 0.51305036 0 0 0 22 22.513672 L 22 41.486328 A 0.51305036 0.51305036 0 0 0 22.742188 41.945312 L 41.716797 32.458984 A 0.51305036 0.51305036 0 0 0 41.716797 31.541016 L 22.742188 22.054688 A 0.51305036 0.51305036 0 0 0 22.494141 22 z" style="color:#000000;font-style:normal;font-variant:normal;font-weight:normal;font-stretch:normal;font-size:medium;line-height:normal;font-family:sans-serif;text-indent:0;text-align:start;text-decoration:none;text-decoration-line:none;text-decoration-style:solid;text-decoration-color:#000000;letter-spacing:normal;word-spacing:normal;text-transform:none;direction:ltr;block-progression:tb;writing-mode:lr-tb;baseline-shift:baseline;text-anchor:start;white-space:normal;clip-rule:nonzero;display:inline;overflow:visible;visibility:visible;opacity:1;isolation:auto;mix-blend-mode:normal;color-interpolation:sRGB;color-interpolation-filters:linearRGB;solid-color:#000000;solid-opacity:1;fill:#ffffff;fill-opacity:1;fill-rule:evenodd;stroke:none;stroke-width:1.02599812px;stroke-linecap:butt;stroke-linejoin:round;stroke-miterlimit:4;stroke-dasharray:none;stroke-dashoffset:0;stroke-opacity:1;color-rendering:auto;image-rendering:auto;shape-rendering:auto;text-rendering:auto;enable-background:accumulate"/>
 <path d="M 7 14 L 7 15 L 15 15 L 15 14 L 7 14 z M 49 14 L 49 15 L 57 15 L 57 14 L 49 14 z M 7 22 L 7 23 L 15 23 L 15 22 L 7 22 z M 49 22 L 49 23 L 57 23 L 57 22 L 49 22 z M 7 30 L 7 31 L 15 31 L 15 30 L 7 30 z M 49 30 L 49 31 L 57 31 L 57 30 L 49 30 z M 7 38 L 7 39 L 15 39 L 15 38 L 7 38 z M 49 38 L 49 39 L 57 39 L 57 38 L 49 38 z M 7 46 L 7 47 L 15 47 L 15 46 L 7 46 z M 49 46 L 49 47 L 57 47 L 57 46 L 49 46 z M 7 54 L 7 55 L 15 55 L 15 54 L 7 54 z M 49 54 L 49 55 L 57 55 L 57 54 L 49 54 z" style="opacity:0.3;fill:#000000;fill-opacity:1;stroke:none;stroke-width:2;stroke-linecap:round;stroke-linejoin:round;stroke-miterlimit:4;stroke-dasharray:none;stroke-opacity:1"/>
</svg>
